<svg x="0px" y="0px"
     width="286.3px" height="82.55px" viewBox="0 0 286.3 82.55" xmlns="http://www.w3.org/2000/svg">

    <g>
        <path d="m276.53901,42.47305l4.559,0l0,5.681c-1.324,0.292 -2.567,0.437 -3.731,0.437c-2.306,0 -4.072,-0.701 -5.301,-2.102c-1.229,-1.401 -1.843,-3.448 -1.843,-6.141c0,-2.562 0.682,-4.581 2.046,-6.057c1.363,-1.477 3.218,-2.215 5.564,-2.215c1.784,0 3.569,0.412 5.354,1.234l1.264,-2.997c-2.056,-0.885 -4.231,-1.326 -6.527,-1.326c-3.57,0 -6.372,1.002 -8.408,3.006c-2.035,2.004 -3.053,4.779 -3.053,8.325c0,3.596 0.901,6.381 2.707,8.354c1.805,1.975 4.371,2.961 7.7,2.961c1.414,0 2.73,-0.091 3.948,-0.271c1.219,-0.182 2.49,-0.488 3.813,-0.92l0,-11.06l-8.093,0l0,3.091l0.001,0zm-14.553,-13.17l-3.294,0l0,11.542c0,0.814 0.03,1.947 0.09,3.398c0.061,1.452 0.101,2.293 0.12,2.523l-0.09,0l-10.784,-17.464l-4.362,0l0,22.029l3.265,0l0,-11.45c0,-1.547 -0.07,-3.255 -0.211,-5.123l-0.075,-0.979l0.121,0l10.813,17.554l4.407,0l0,-22.03zm-23.833,0l-3.595,0l0,22.029l3.595,0l0,-22.029zm-13.402,3.089l6.467,0l0,-3.089l-16.53,0l0,3.089l6.468,0l0,18.94l3.596,0l0,-18.94l-0.001,0zm-8.152,18.94l0,-3.088l-9.311,0l0,-18.941l-3.595,0l0,22.029l12.906,0zm-21.878,-22.029l0,13.908c0,3.566 -1.695,5.349 -5.084,5.349c-1.745,0 -3.038,-0.432 -3.88,-1.296c-0.844,-0.863 -1.265,-2.205 -1.265,-4.022l0,-13.939l-3.609,0l0,14.194c0,2.532 0.757,4.52 2.271,5.967c1.515,1.447 3.635,2.17 6.363,2.17c1.835,0 3.411,-0.329 4.729,-0.986c1.318,-0.658 2.326,-1.598 3.023,-2.818c0.697,-1.22 1.045,-2.645 1.045,-4.272l0,-14.255l-3.593,0zm-18.136,13.456c-0.352,-0.732 -0.902,-1.391 -1.654,-1.974s-1.936,-1.21 -3.55,-1.884c-1.435,-0.593 -2.427,-1.069 -2.979,-1.432c-0.551,-0.361 -0.947,-0.746 -1.188,-1.152c-0.24,-0.407 -0.361,-0.896 -0.361,-1.47c0,-0.834 0.301,-1.504 0.903,-2.011c0.601,-0.508 1.482,-0.761 2.646,-0.761c1.534,0 3.279,0.412 5.234,1.234l1.143,-2.938c-2.086,-0.924 -4.181,-1.386 -6.287,-1.386c-2.195,0 -3.945,0.526 -5.249,1.582c-1.304,1.055 -1.955,2.501 -1.955,4.339c0,1.467 0.411,2.723 1.233,3.767c0.822,1.045 2.236,1.975 4.241,2.788c1.946,0.783 3.229,1.462 3.851,2.034c0.621,0.573 0.933,1.271 0.933,2.095c0,0.914 -0.339,1.643 -1.016,2.185c-0.677,0.543 -1.727,0.813 -3.15,0.813c-0.974,0 -2.023,-0.136 -3.151,-0.407c-1.128,-0.271 -2.194,-0.643 -3.196,-1.114l0,3.405c1.584,0.773 3.619,1.16 6.106,1.16s4.437,-0.558 5.851,-1.673s2.121,-2.652 2.121,-4.611c0,-0.992 -0.175,-1.856 -0.526,-2.589m-17.934,-13.456l-3.294,0l0,11.542c0,0.814 0.03,1.947 0.09,3.398c0.061,1.452 0.101,2.293 0.12,2.523l-0.09,0l-10.784,-17.464l-4.362,0l0,22.029l3.264,0l0,-11.45c0,-1.547 -0.07,-3.255 -0.211,-5.123l-0.075,-0.979l0.12,0l10.814,17.554l4.407,0l0,-22.03l0.001,0zm-37.953,4.837c1.098,-1.396 2.725,-2.094 4.881,-2.094c2.135,0 3.742,0.698 4.82,2.094c1.078,1.396 1.617,3.446 1.617,6.148c0,2.742 -0.544,4.806 -1.632,6.193c-1.088,1.386 -2.7,2.078 -4.836,2.078c-2.145,0 -3.765,-0.7 -4.858,-2.102c-1.093,-1.401 -1.639,-3.458 -1.639,-6.17c0,-2.701 0.55,-4.751 1.647,-6.147m12.462,-2.215c-1.785,-1.979 -4.312,-2.968 -7.58,-2.968c-3.319,0 -5.874,0.974 -7.664,2.923c-1.789,1.949 -2.684,4.741 -2.684,8.378c0,3.636 0.889,6.441 2.669,8.415c1.78,1.975 4.329,2.961 7.648,2.961c3.279,0 5.814,-0.995 7.604,-2.983c1.789,-1.989 2.684,-4.776 2.684,-8.362c-0.001,-3.597 -0.893,-6.385 -2.677,-8.364m-23.501,0.55c0.827,0.267 1.612,0.575 2.354,0.928l1.293,-2.999c-1.905,-0.944 -3.98,-1.416 -6.226,-1.416c-2.136,0 -3.996,0.457 -5.58,1.371c-1.585,0.914 -2.796,2.229 -3.633,3.947c-0.837,1.718 -1.256,3.722 -1.256,6.013c0,3.636 0.863,6.431 2.587,8.385c1.725,1.954 4.197,2.931 7.415,2.931c2.186,0 4.142,-0.327 5.866,-0.979l0,-3.089c-0.942,0.292 -1.85,0.529 -2.722,0.716c-0.872,0.186 -1.775,0.278 -2.707,0.278c-2.156,0 -3.803,-0.692 -4.941,-2.078c-1.138,-1.388 -1.707,-3.432 -1.707,-6.134c0,-2.582 0.591,-4.605 1.774,-6.071c1.183,-1.468 2.808,-2.2 4.874,-2.2c0.911,-0.002 1.782,0.131 2.609,0.397m-23.555,15.769l-11.431,0l11.13,-16.409l0,-2.532l-15.131,0l0,3.089l10.785,0l-11.085,16.439l0,2.501l15.732,0l0,-3.088zm-24.446,-15.852l6.467,0l0,-3.089l-16.53,0l0,3.089l6.468,0l0,18.94l3.595,0l0,-18.94zm-13.387,-3.089l-3.595,0l0,22.029l3.595,0l0,-22.029zm-18.409,3.014l2.497,0c1.634,0 2.837,0.311 3.609,0.934c0.772,0.623 1.158,1.567 1.158,2.833c0,1.366 -0.431,2.371 -1.293,3.013c-0.863,0.644 -2.216,0.965 -4.061,0.965l-1.91,0l0,-7.745zm8.911,-1.326c-1.368,-1.125 -3.427,-1.688 -6.174,-1.688l-6.332,0l0,22.029l3.595,0l0,-8.242l2.286,0c2.777,0 4.918,-0.612 6.422,-1.838c1.504,-1.225 2.256,-2.988 2.256,-5.289c0.001,-2.19 -0.683,-3.847 -2.053,-4.972m-32.139,3.149c1.098,-1.396 2.725,-2.094 4.881,-2.094c2.135,0 3.742,0.698 4.82,2.094c1.078,1.396 1.617,3.446 1.617,6.148c0,2.742 -0.544,4.806 -1.632,6.193c-1.088,1.386 -2.7,2.078 -4.836,2.078c-2.145,0 -3.765,-0.7 -4.858,-2.102c-1.093,-1.401 -1.639,-3.458 -1.639,-6.17c0,-2.701 0.55,-4.751 1.647,-6.147m12.462,-2.215c-1.785,-1.979 -4.312,-2.968 -7.58,-2.968c-3.32,0 -5.874,0.974 -7.664,2.923s-2.684,4.741 -2.684,8.378c0,3.636 0.889,6.441 2.669,8.415c1.78,1.975 4.329,2.961 7.648,2.961c3.279,0 5.814,-0.995 7.603,-2.983c1.79,-1.989 2.685,-4.776 2.685,-8.362c-0.001,-3.597 -0.893,-6.385 -2.677,-8.364" id="svg_2"/>
    </g>
</svg>